<svg width="18" height="18" viewBox="0 0 18 18" fill="none" xmlns="http://www.w3.org/2000/svg">
<path d="M13 1H14C14.5523 1 15 1.44772 15 2V3H3V2C3 1.44772 3.44772 1 4 1H5V0H7V1H11V0H13V1Z" fill="black" fill-opacity="0.878431"/>
<path d="M3 4H15V15C15 15.5523 14.5523 16 14 16H4C3.44772 16 3 15.5523 3 15V4Z" fill="black" fill-opacity="0.878431"/>
<rect x="5" y="7" width="2" height="2" fill="white"/>
<rect x="8" y="7" width="2" height="2" fill="white"/>
<rect x="11" y="7" width="2" height="2" fill="white"/>
<rect x="5" y="10" width="2" height="2" fill="white"/>
<rect x="8" y="10" width="2" height="2" fill="white"/>
<rect x="11" y="10" width="2" height="2" fill="white"/>
<rect x="5" y="13" width="2" height="2" fill="white"/>
<rect x="8" y="13" width="2" height="2" fill="white"/>
</svg>
